Archétype 2:2.ufo
<glyph name="exclam" format="1">
  <advance width="201"/>
  <unicode hex="0021"/>
  <outline>
    <contour>
      <point x="101" y="0" type="line"/>
      <point x="74" y="0" type="line"/>
      <point x="74" y="25" type="line"/>
      <point x="101" y="25" type="line"/>
    </contour>
    <contour>
      <point x="100" y="49" type="line"/>
      <point x="75" y="49" type="line"/>
      <point x="73" y="200" type="line"/>
      <point x="102" y="200" type="line"/>
    </contour>
  </outline>
</glyph>
<glyph name="quotesingle" format="1">
  <advance width="200"/>
  <unicode hex="0027"/>
  <outline>
    <contour>
      <point x="44" y="140" type="line"/>
      <point x="44" y="202" type="line"/>
      <point x="20" y="202" type="line"/>
      <point x="20" y="140" type="line"/>
      <point x="44" y="140" type="line"/>
      <point x="20" y="140" type="line"/>
    </contour>
  </outline>
</glyph>
<glyph name="parenleft" format="1">
  <advance width="200"/>
  <unicode hex="0028"/>
  <outline>
    <contour>
      <point x="155" y="22" type="line"/>
      <point x="120" y="22"/>
      <point x="99" y="57"/>
      <point x="99" y="101" type="curve" smooth="yes"/>
      <point x="99" y="144"/>
      <point x="120" y="178"/>
      <point x="155" y="178" type="curve"/>
      <point x="155" y="203" type="line"/>
      <point x="105" y="203"/>
      <point x="74" y="159"/>
      <point x="74" y="101" type="curve" smooth="yes"/>
      <point x="74" y="42"/>
      <point x="105" y="-3"/>
      <point x="155" y="-3" type="curve"/>
    </contour>
  </outline>
</glyph>
<glyph name="parenright" format="1">
  <advance width="200"/>
  <unicode hex="0029"/>
  <outline>
    <contour>
      <point x="44" y="22" type="curve"/>
      <point x="44" y="-3" type="line"/>
      <point x="94" y="-3"/>
      <point x="125" y="42"/>
      <point x="125" y="101" type="curve" smooth="yes"/>
      <point x="125" y="159"/>
      <point x="94" y="203"/>
      <point x="44" y="203" type="curve"/>
      <point x="44" y="178" type="line"/>
      <point x="79" y="178"/>
      <point x="100" y="144"/>
      <point x="100" y="101" type="curve" smooth="yes"/>
      <point x="100" y="57"/>
      <point x="79" y="22"/>
    </contour>
  </outline>
</glyph>
<glyph name="comma" format="1">
  <advance width="200"/>
  <unicode hex="002C"/>
  <outline>
    <contour>
      <point x="74" y="31" type="curve" smooth="yes"/>
      <point x="65" y="31"/>
      <point x="57" y="23"/>
      <point x="57" y="13" type="curve" smooth="yes"/>
      <point x="57" y="4"/>
      <point x="62" y="-1"/>
      <point x="68" y="-2" type="curve"/>
      <point x="67" y="-14"/>
      <point x="60" y="-25"/>
      <point x="48" y="-34" type="curve"/>
      <point x="51" y="-44" type="line"/>
      <point x="81" y="-34"/>
      <point x="91" y="-10"/>
      <point x="91" y="9" type="curve" smooth="yes"/>
      <point x="91" y="13" type="line" smooth="yes"/>
      <point x="91" y="23"/>
      <point x="84" y="31"/>
    </contour>
  </outline>
</glyph>
<glyph name="period" format="1">
  <advance width="190"/>
  <unicode hex="002E"/>
  <outline>
    <contour>
      <point x="95" y="-3" type="curve" smooth="yes"/>
      <point x="106" y="-3"/>
      <point x="114" y="6"/>
      <point x="114" y="17" type="curve" smooth="yes"/>
      <point x="114" y="28"/>
      <point x="106" y="37"/>
      <point x="95" y="37" type="curve" smooth="yes"/>
      <point x="84" y="37"/>
      <point x="75" y="28"/>
      <point x="75" y="17" type="curve" smooth="yes"/>
      <point x="75" y="6"/>
      <point x="84" y="-3"/>
    </contour>
  </outline>
</glyph>
<glyph name="zero" format="1">
  <advance width="200"/>
  <unicode hex="0030"/>
  <outline>
    <contour>
      <point x="101" y="-3" type="curve" smooth="yes"/>
      <point x="45" y="-3"/>
      <point x="10" y="42"/>
      <point x="10" y="101" type="curve" smooth="yes"/>
      <point x="10" y="159"/>
      <point x="45" y="203"/>
      <point x="101" y="203" type="curve" smooth="yes"/>
      <point x="156" y="203"/>
      <point x="191" y="159"/>
      <point x="191" y="101" type="curve" smooth="yes"/>
      <point x="191" y="43"/>
      <point x="157" y="-3"/>
    </contour>
    <contour>
      <point x="101" y="178" type="curve" smooth="yes"/>
      <point x="60" y="178"/>
      <point x="35" y="144"/>
      <point x="35" y="101" type="curve" smooth="yes"/>
      <point x="35" y="57"/>
      <point x="60" y="22"/>
      <point x="101" y="22" type="curve" smooth="yes"/>
      <point x="142" y="22"/>
      <point x="166" y="57"/>
      <point x="166" y="101" type="curve" smooth="yes"/>
      <point x="166" y="144"/>
      <point x="142" y="178"/>
    </contour>
    <contour>
      <point x="117" y="85" type="line"/>
      <point x="84" y="85" type="line"/>
      <point x="84" y="115" type="line"/>
      <point x="117" y="115" type="line"/>
    </contour>
  </outline>
</glyph>
<glyph name="one" format="1">
  <advance width="200"/>
  <unicode hex="0031"/>
  <outline>
    <contour>
      <point x="96" y="200" type="line"/>
      <point x="34" y="153" type="line"/>
      <point x="34" y="123" type="line"/>
      <point x="96" y="171" type="line"/>
      <point x="96" y="24" type="line"/>
      <point x="24" y="24" type="line"/>
      <point x="24" y="0" type="line"/>
      <point x="176" y="0" type="line"/>
      <point x="176" y="24" type="line"/>
      <point x="121" y="24" type="line"/>
      <point x="121" y="200" type="line"/>
    </contour>
  </outline>
</glyph>
<glyph name="two" format="1">
  <advance width="200"/>
  <unicode hex="0032"/>
  <outline>
    <contour>
      <point x="24" y="0" type="curve"/>
      <point x="172" y="0" type="line"/>
      <point x="172" y="24" type="line"/>
      <point x="55" y="24" type="line"/>
      <point x="60.0" y="47.0"/>
      <point x="85.0" y="63.0"/>
      <point x="128" y="82" type="curve" smooth="yes"/>
      <point x="153" y="93"/>
      <point x="176" y="121"/>
      <point x="176" y="144" type="curve" smooth="yes"/>
      <point x="176" y="182"/>
      <point x="151" y="202"/>
      <point x="103" y="202" type="curve" smooth="yes"/>
      <point x="49.6075949367" y="202.0"/>
      <point x="29.0" y="176.0"/>
      <point x="29" y="130" type="curve"/>
      <point x="53" y="132" type="line"/>
      <point x="53.9998718133" y="157.996667145"/>
      <point x="69.3636363636" y="178.0"/>
      <point x="103" y="178" type="curve" smooth="yes"/>
      <point x="138" y="178"/>
      <point x="152" y="165"/>
      <point x="152" y="142" type="curve" smooth="yes"/>
      <point x="152" y="131"/>
      <point x="130" y="107"/>
      <point x="109" y="99" type="curve" smooth="yes"/>
      <point x="54.0" y="78.0"/>
      <point x="24.0" y="49.0"/>
    </contour>
  </outline>
</glyph>
<glyph name="three" format="1">
  <advance width="200"/>
  <unicode hex="0033"/>
  <outline>
    <contour>
      <point x="101" y="-3" type="curve" smooth="yes"/>
      <point x="146.5" y="-3.0"/>
      <point x="178" y="18"/>
      <point x="178" y="64" type="curve"/>
      <point x="178.0" y="79.0"/>
      <point x="171.0" y="96.0"/>
      <point x="160" y="105" type="curve"/>
      <point x="170.0" y="113.0"/>
      <point x="178.0" y="125.0"/>
      <point x="178" y="144" type="curve"/>
      <point x="178" y="185"/>
      <point x="147.666666667" y="203.0"/>
      <point x="101" y="203" type="curve" smooth="yes"/>
      <point x="57.4117647059" y="203.0"/>
      <point x="23" y="183"/>
      <point x="23" y="152" type="curve"/>
      <point x="48" y="152" type="line"/>
      <point x="53.0567847633" y="175.261209911"/>
      <point x="72.0000000001" y="179.0"/>
      <point x="102" y="179" type="curve" smooth="yes"/>
      <point x="129.365853659" y="179.0"/>
      <point x="153" y="166"/>
      <point x="153" y="148" type="curve"/>
      <point x="153.0" y="122.0"/>
      <point x="122.0" y="116.0"/>
      <point x="93" y="116" type="curve"/>
      <point x="93" y="94" type="line"/>
      <point x="123.0" y="94.0"/>
      <point x="154.0" y="88.8387096774"/>
      <point x="154" y="62" type="curve"/>
      <point x="154" y="31"/>
      <point x="137" y="21"/>
      <point x="102" y="21" type="curve" smooth="yes"/>
      <point x="66" y="21"/>
      <point x="52.0332561032" y="29.8004633808"/>
      <point x="47" y="60" type="curve"/>
      <point x="22" y="60" type="line"/>
      <point x="23" y="15"/>
      <point x="52.9130434783" y="-3.0"/>
    </contour>
  </outline>
</glyph>
<glyph name="four" format="1">
  <advance width="200"/>
  <unicode hex="0034"/>
  <outline>
    <contour>
      <point x="151" y="0" type="line"/>
      <point x="151" y="47" type="line"/>
      <point x="181" y="47" type="line"/>
      <point x="181" y="71" type="line"/>
      <point x="151" y="71" type="line"/>
      <point x="151" y="200" type="line"/>
      <point x="125" y="200" type="line"/>
      <point x="19" y="71" type="line"/>
      <point x="19" y="47" type="line"/>
      <point x="126" y="47" type="line"/>
      <point x="126" y="0" type="line"/>
    </contour>
    <contour>
      <point x="118" y="153" type="line"/>
      <point x="122" y="158"/>
      <point x="125" y="164"/>
      <point x="125" y="166" type="curve"/>
      <point x="128" y="166" type="line"/>
      <point x="127" y="158"/>
      <point x="127" y="145"/>
      <point x="127" y="141" type="curve" name="_p_cornerRadius:9.0"/>
      <point x="127" y="71" type="line"/>
      <point x="48" y="71" type="line"/>
    </contour>
  </outline>
</glyph>
<glyph name="five" format="1">
  <advance width="200"/>
  <unicode hex="0035"/>
  <outline>
    <contour>
      <point x="109" y="135" type="curve"/>
      <point x="89" y="135"/>
      <point x="68" y="133"/>
      <point x="57" y="119" type="curve"/>
      <point x="58" y="176" type="line"/>
      <point x="170" y="176" type="line"/>
      <point x="170" y="200" type="line"/>
      <point x="34" y="200" type="line"/>
      <point x="33" y="94" type="line"/>
      <point x="54" y="94" type="line"/>
      <point x="69" y="106"/>
      <point x="82" y="111"/>
      <point x="104" y="111" type="curve"/>
      <point x="142.076923077" y="111.0"/>
      <point x="159.0" y="100.0"/>
      <point x="159" y="71" type="curve"/>
      <point x="159.0" y="36.0"/>
      <point x="142.094339623" y="21.0"/>
      <point x="103" y="21" type="curve" smooth="yes"/>
      <point x="67.0" y="21.0"/>
      <point x="54.0239376024" y="31.8444055841"/>
      <point x="50" y="58" type="curve"/>
      <point x="26" y="55" type="line"/>
      <point x="32.0192162762" y="12.8654860664"/>
      <point x="54.0" y="-3.0"/>
      <point x="103" y="-3" type="curve" smooth="yes"/>
      <point x="159.103896104" y="-3.0"/>
      <point x="183.0" y="19.0"/>
      <point x="183" y="71" type="curve"/>
      <point x="180.999837191" y="117.003744612"/>
      <point x="160.070422535" y="135.0"/>
    </contour>
  </outline>
</glyph>
<glyph name="six" format="1">
  <advance width="200"/>
  <unicode hex="0036"/>
  <outline>
    <contour>
      <point x="99" y="21" type="curve" smooth="yes"/>
      <point x="60.1914893617" y="21.0"/>
      <point x="42" y="33"/>
      <point x="42" y="65" type="curve" smooth="yes"/>
      <point x="42" y="92"/>
      <point x="63.829787234" y="104.0"/>
      <point x="99" y="104" type="curve" smooth="yes"/>
      <point x="134.590909091" y="104.0"/>
      <point x="153" y="93"/>
      <point x="153" y="62" type="curve" smooth="yes"/>
      <point x="153" y="34"/>
      <point x="132.136363636" y="21.0"/>
    </contour>
    <contour>
      <point x="99" y="-3" type="curve" smooth="yes"/>
      <point x="154.058823529" y="-3.0"/>
      <point x="177" y="20"/>
      <point x="177" y="62" type="curve" smooth="yes"/>
      <point x="177" y="108"/>
      <point x="145.909090909" y="128.0"/>
      <point x="101" y="128" type="curve" smooth="yes"/>
      <point x="71.8936170213" y="128.0"/>
      <point x="48.1084967365" y="121.298366026"/>
      <point x="44" y="110" type="curve"/>
      <point x="40" y="110" type="line"/>
      <point x="40.0" y="163.0"/>
      <point x="56" y="179"/>
      <point x="92" y="179" type="curve" smooth="yes"/>
      <point x="121" y="179"/>
      <point x="143" y="169"/>
      <point x="148" y="152" type="curve"/>
      <point x="172" y="152" type="line"/>
      <point x="167" y="188"/>
      <point x="140.285714286" y="203.0"/>
      <point x="98" y="203" type="curve" smooth="yes"/>
      <point x="39.5" y="203.0"/>
      <point x="17.0" y="186.0"/>
      <point x="17" y="98" type="curve" smooth="yes"/>
      <point x="17.0" y="15.0"/>
      <point x="35.2222222222" y="-3.0"/>
    </contour>
  </outline>
</glyph>
<glyph name="seven" format="1">
  <advance width="200"/>
  <unicode hex="0037"/>
  <outline>
    <contour>
      <point x="145" y="116" type="curve" smooth="yes"/>
      <point x="163.213440415" y="137.249013818"/>
      <point x="182.0" y="166.0"/>
      <point x="182" y="183" type="curve"/>
      <point x="182" y="200" type="line"/>
      <point x="18" y="200" type="line"/>
      <point x="18" y="175" type="line"/>
      <point x="154" y="175" type="line"/>
      <point x="151.994375194" y="168.983125581"/>
      <point x="137.229531896" y="145.275438275"/>
      <point x="117" y="121" type="curve" smooth="yes"/>
      <point x="92" y="91"/>
      <point x="57" y="36"/>
      <point x="57" y="0" type="curve"/>
      <point x="84" y="0" type="line"/>
      <point x="84" y="34"/>
      <point x="121" y="88"/>
    </contour>
  </outline>
</glyph>
<glyph name="eight" format="1">
  <advance width="200"/>
  <unicode hex="0038"/>
  <outline>
    <contour>
      <point x="100" y="115" type="curve"/>
      <point x="68.0" y="115.0"/>
      <point x="48.0" y="127.277777778"/>
      <point x="48" y="149" type="curve" smooth="yes"/>
      <point x="48.0" y="167.461538462"/>
      <point x="68.2222222222" y="179.0"/>
      <point x="100" y="179" type="curve" smooth="yes"/>
      <point x="131.777777778" y="179.0"/>
      <point x="152.0" y="167.461538462"/>
      <point x="152" y="149" type="curve" smooth="yes"/>
      <point x="152.0" y="127.277777778"/>
      <point x="132.0" y="115.0"/>
    </contour>
    <contour>
      <point x="100" y="21" type="curve"/>
      <point x="58" y="21"/>
      <point x="45" y="35"/>
      <point x="45" y="57" type="curve" smooth="yes"/>
      <point x="45" y="81"/>
      <point x="62.0" y="92.0"/>
      <point x="100" y="92" type="curve" smooth="yes"/>
      <point x="138.0" y="92.0"/>
      <point x="155" y="81"/>
      <point x="155" y="57" type="curve" smooth="yes"/>
      <point x="155" y="35"/>
      <point x="142" y="21"/>
    </contour>
    <contour>
      <point x="100" y="-3" type="curve" smooth="yes"/>
      <point x="159.0" y="-3.0"/>
      <point x="179" y="17"/>
      <point x="179" y="57" type="curve" smooth="yes"/>
      <point x="179" y="85"/>
      <point x="169" y="96"/>
      <point x="149" y="107" type="curve"/>
      <point x="165" y="118"/>
      <point x="176.0" y="131.571428571"/>
      <point x="176" y="150" type="curve" smooth="yes"/>
      <point x="176.0" y="188.93877551"/>
      <point x="150" y="203"/>
      <point x="100" y="203" type="curve"/>
      <point x="50" y="203"/>
      <point x="24.0" y="188.93877551"/>
      <point x="24" y="150" type="curve" smooth="yes"/>
      <point x="24.0" y="131.571428571"/>
      <point x="35" y="118"/>
      <point x="51" y="107" type="curve"/>
      <point x="32" y="96"/>
      <point x="21" y="85"/>
      <point x="21" y="57" type="curve" smooth="yes"/>
      <point x="21" y="16"/>
      <point x="41.0" y="-3.0"/>
    </contour>
  </outline>
</glyph>
<glyph name="nine" format="1">
  <advance width="200"/>
  <unicode hex="0039"/>
  <outline>
    <contour>
      <point x="98" y="179" type="curve" smooth="yes"/>
      <point x="135" y="179"/>
      <point x="154.0" y="167.0"/>
      <point x="154" y="135" type="curve" smooth="yes"/>
      <point x="154.0" y="109.0"/>
      <point x="129.438596491" y="100.0"/>
      <point x="98" y="100" type="curve" smooth="yes"/>
      <point x="62" y="100"/>
      <point x="45" y="109"/>
      <point x="45" y="138" type="curve" smooth="yes"/>
      <point x="45" y="168"/>
      <point x="64" y="179"/>
    </contour>
    <contour>
      <point x="98" y="203" type="curve" smooth="yes"/>
      <point x="43" y="203"/>
      <point x="21" y="180"/>
      <point x="21" y="138" type="curve" smooth="yes"/>
      <point x="21" y="95"/>
      <point x="51" y="76"/>
      <point x="96" y="76" type="curve" smooth="yes"/>
      <point x="125" y="76"/>
      <point x="148.011490295" y="81.0258531648"/>
      <point x="152" y="90" type="curve"/>
      <point x="156" y="90" type="line"/>
      <point x="156.0" y="38.0"/>
      <point x="139.293103448" y="21.0"/>
      <point x="99" y="21" type="curve" smooth="yes"/>
      <point x="67" y="21"/>
      <point x="50" y="25"/>
      <point x="46" y="48" type="curve"/>
      <point x="22" y="48" type="line"/>
      <point x="28" y="8"/>
      <point x="50" y="-3"/>
      <point x="98" y="-3" type="curve" smooth="yes"/>
      <point x="156" y="-3"/>
      <point x="179.0" y="14.0"/>
      <point x="179" y="100" type="curve" smooth="yes"/>
      <point x="179.0" y="185.0"/>
      <point x="161.219512195" y="203.0"/>
    </contour>
  </outline>
</glyph>
<glyph name="colon" format="1">
  <advance width="190"/>
  <unicode hex="003A"/>
  <outline>
    <contour>
      <point x="93" y="0" type="line"/>
      <point x="60" y="0" type="line"/>
      <point x="60" y="30" type="line"/>
      <point x="93" y="30" type="line"/>
    </contour>
    <contour>
      <point x="93" y="80" type="line"/>
      <point x="60" y="80" type="line"/>
      <point x="60" y="110" type="line"/>
      <point x="93" y="110" type="line"/>
    </contour>
  </outline>
</glyph>
<glyph name="semicolon" format="1">
  <advance width="190"/>
  <unicode hex="003B"/>
  <outline>
    <contour>
      <point x="75" y="86" type="curve" smooth="yes"/>
      <point x="83" y="86"/>
      <point x="91" y="94"/>
      <point x="91" y="104" type="curve" smooth="yes"/>
      <point x="91" y="114"/>
      <point x="83" y="121"/>
      <point x="75" y="121" type="curve" smooth="yes"/>
      <point x="65" y="121"/>
      <point x="57" y="114"/>
      <point x="57" y="104" type="curve" smooth="yes"/>
      <point x="57" y="94"/>
      <point x="65" y="86"/>
    </contour>
    <component base="comma"/>
  </outline>
</glyph>
<glyph name="question" format="1">
  <advance width="201"/>
  <unicode hex="003F"/>
  <outline>
    <contour>
      <point x="78" y="45" type="move" smooth="yes"/>
      <point x="78.0" y="77.0"/>
      <point x="89.2024535438" y="98.1367502162"/>
      <point x="118" y="113" type="curve" smooth="yes"/>
      <point x="137" y="124"/>
      <point x="154" y="125"/>
      <point x="154" y="146" type="curve"/>
      <point x="154" y="169"/>
      <point x="127" y="179"/>
      <point x="100" y="179" type="curve" smooth="yes"/>
      <point x="75" y="179"/>
      <point x="51" y="164"/>
      <point x="45" y="142" type="curve"/>
      <point x="20" y="142" type="line"/>
      <point x="25" y="179"/>
      <point x="62" y="203"/>
      <point x="103" y="203" type="curve" smooth="yes"/>
      <point x="142" y="203"/>
      <point x="180" y="182"/>
      <point x="180" y="148" type="curve" smooth="yes"/>
      <point x="180" y="119"/>
      <point x="161" y="105"/>
      <point x="133" y="93" type="curve" smooth="yes"/>
      <point x="111.382592683" y="83.9927469514"/>
      <point x="103.0" y="71.0"/>
      <point x="103" y="45" type="curve"/>
      <point x="103" y="45"/>
    </contour>
    <contour>
      <point x="105" y="0" type="line"/>
      <point x="78" y="0" type="line"/>
      <point x="78" y="25" type="line"/>
      <point x="105" y="25" type="line"/>
    </contour>
  </outline>
</glyph>
<glyph name="A" format="1">
  <advance width="200"/>
  <unicode hex="0041"/>
  <outline>
    <contour>
      <point x="10" y="0" type="line"/>
      <point x="88" y="200" type="line"/>
      <point x="112" y="200" type="line"/>
      <point x="191" y="0" type="line"/>
      <point x="163" y="0" type="line"/>
      <point x="146" y="46" type="line"/>
      <point x="55" y="46" type="line"/>
      <point x="38" y="0" type="line"/>
    </contour>
    <contour>
      <point x="63" y="70" type="line"/>
      <point x="137" y="70" type="line"/>
      <point x="113" y="136" type="line" smooth="yes"/>
      <point x="108" y="150"/>
      <point x="102" y="165"/>
      <point x="102" y="167" type="curve"/>
      <point x="98" y="167" type="line"/>
      <point x="98" y="165"/>
      <point x="93" y="150"/>
      <point x="88" y="136" type="curve" smooth="yes"/>
    </contour>
  </outline>
</glyph>
<glyph name="B" format="1">
  <advance width="199.930608729"/>
  <unicode hex="0042"/>
  <outline>
    <contour>
      <point x="30" y="0" type="line"/>
      <point x="93" y="0" type="line" smooth="yes"/>
      <point x="152" y="0"/>
      <point x="178" y="16"/>
      <point x="178" y="56" type="curve" smooth="yes"/>
      <point x="178" y="78"/>
      <point x="166" y="95"/>
      <point x="147" y="104" type="curve"/>
      <point x="159" y="115"/>
      <point x="168" y="130"/>
      <point x="168" y="145" type="curve" smooth="yes"/>
      <point x="168" y="184"/>
      <point x="142" y="200"/>
      <point x="81" y="200" type="curve" smooth="yes"/>
      <point x="30" y="200" type="line"/>
    </contour>
    <contour>
      <point x="54" y="111" type="line"/>
      <point x="54" y="176" type="line"/>
      <point x="71" y="176" type="line" smooth="yes"/>
      <point x="119" y="176"/>
      <point x="143" y="167"/>
      <point x="143" y="145" type="curve" smooth="yes"/>
      <point x="143" y="128"/>
      <point x="125" y="111"/>
      <point x="106" y="111" type="curve"/>
    </contour>
    <contour>
      <point x="54" y="24" type="line"/>
      <point x="54" y="88" type="line"/>
      <point x="116" y="88" type="line" smooth="yes"/>
      <point x="138" y="88"/>
      <point x="153" y="75"/>
      <point x="153" y="56" type="curve" smooth="yes"/>
      <point x="153" y="33"/>
      <point x="131" y="24"/>
      <point x="83" y="24" type="curve" smooth="yes"/>
    </contour>
  </outline>
</glyph>
<glyph name="C" format="1">
  <advance width="200"/>
  <unicode hex="0043"/>
  <outline>
    <contour>
      <point x="112.0" y="-3.0" type="curve" smooth="yes"/>
      <point x="48.0" y="-3.0"/>
      <point x="10" y="42"/>
      <point x="10" y="100" type="curve" smooth="yes"/>
      <point x="10" y="158"/>
      <point x="48.0" y="203.0"/>
      <point x="112.0" y="203.0" type="curve" smooth="yes"/>
      <point x="145.0" y="203.0"/>
      <point x="175.0" y="190.0"/>
      <point x="195.0" y="172.0" type="curve"/>
      <point x="180.0" y="154.0" type="line"/>
      <point x="163.0" y="168.0"/>
      <point x="139" y="177"/>
      <point x="112" y="177" type="curve" smooth="yes"/>
      <point x="61" y="177"/>
      <point x="35" y="145"/>
      <point x="35" y="100" type="curve" smooth="yes"/>
      <point x="35" y="55"/>
      <point x="61" y="23"/>
      <point x="112" y="23" type="curve" smooth="yes"/>
      <point x="139" y="23"/>
      <point x="163.0" y="32.0"/>
      <point x="180.0" y="46.0" type="curve"/>
      <point x="195.0" y="28.0" type="line"/>
      <point x="175.0" y="10.0"/>
      <point x="145.0" y="-3.0"/>
    </contour>
    <contour>
      <point x="188.0" y="37.0" type="move"/>
    </contour>
    <contour>
      <point x="188.0" y="163.0" type="move"/>
    </contour>
  </outline>
</glyph>
<glyph name="D" format="1">
  <advance width="200"/>
  <unicode hex="0044"/>
  <outline>
    <contour>
      <point x="28" y="200" type="line"/>
      <point x="79" y="200" type="line" smooth="yes"/>
      <point x="127" y="200"/>
      <point x="171" y="179"/>
      <point x="171" y="100" type="curve" smooth="yes"/>
      <point x="171" y="24"/>
      <point x="131" y="0"/>
      <point x="78" y="0" type="curve" smooth="yes"/>
      <point x="28" y="0" type="line"/>
    </contour>
    <contour>
      <point x="72" y="24" type="line" smooth="yes"/>
      <point x="114" y="24"/>
      <point x="146" y="37"/>
      <point x="146" y="100" type="curve" smooth="yes"/>
      <point x="146" y="163"/>
      <point x="111" y="176"/>
      <point x="75" y="176" type="curve" smooth="yes"/>
      <point x="53" y="176" type="line"/>
      <point x="53" y="24" type="line"/>
    </contour>
  </outline>
</glyph>
<glyph name="E" format="1">
  <advance width="200"/>
  <unicode hex="0045"/>
  <outline>
    <contour>
      <point x="45" y="1" type="line"/>
      <point x="20.0" y="1.0" type="line"/>
      <point x="20.0" y="201.0" type="line"/>
      <point x="45" y="201" type="line"/>
    </contour>
    <contour>
      <point x="180" y="177" type="line"/>
      <point x="30.0" y="177.0" type="line"/>
      <point x="30.0" y="201.0" type="line"/>
      <point x="180" y="201" type="line"/>
    </contour>
    <contour>
      <point x="140" y="89" type="line"/>
      <point x="30.0" y="89.0" type="line"/>
      <point x="30.0" y="113.0" type="line"/>
      <point x="140" y="113" type="line"/>
    </contour>
    <contour>
      <point x="180" y="1" type="line"/>
      <point x="30.0" y="1.0" type="line"/>
      <point x="30.0" y="25.0" type="line"/>
      <point x="180" y="25" type="line"/>
    </contour>
  </outline>
</glyph>
<glyph name="F" format="1">
  <advance width="500"/>
  <unicode hex="0046"/>
  <outline>
    <contour>
      <point x="58.0" y="0.0" type="line"/>
      <point x="34.0" y="0.0" type="line"/>
      <point x="34.0" y="200.0" type="line"/>
      <point x="58.0" y="200.0" type="line"/>
    </contour>
    <contour>
      <point x="232.0" y="176.0" type="line"/>
      <point x="44.0" y="176.0" type="line"/>
      <point x="44.0" y="200.0" type="line"/>
      <point x="232.0" y="200.0" type="line"/>
    </contour>
    <contour>
      <point x="192.0" y="88.0" type="line"/>
      <point x="44.0" y="88.0" type="line"/>
      <point x="44.0" y="112.0" type="line"/>
      <point x="192.0" y="112.0" type="line"/>
    </contour>
  </outline>
</glyph>
<glyph name="G" format="1">
  <advance width="200"/>
  <unicode hex="0047"/>
  <outline>
    <contour>
      <point x="182" y="88" type="line" smooth="yes"/>
      <point x="182" y="55"/>
      <point x="173" y="-4"/>
      <point x="102" y="-4" type="curve" smooth="yes"/>
      <point x="52" y="-4"/>
      <point x="20" y="41"/>
      <point x="20" y="100" type="curve" smooth="yes"/>
      <point x="20" y="161"/>
      <point x="54" y="202"/>
      <point x="105" y="202" type="curve" smooth="yes"/>
      <point x="136" y="202"/>
      <point x="160" y="189"/>
      <point x="176" y="164" type="curve"/>
      <point x="153" y="151" type="line"/>
      <point x="141" y="169"/>
      <point x="125" y="177"/>
      <point x="105" y="177" type="curve" smooth="yes"/>
      <point x="71" y="177"/>
      <point x="45" y="145"/>
      <point x="45" y="100" type="curve" smooth="yes"/>
      <point x="45" y="52"/>
      <point x="69" y="21"/>
      <point x="102" y="21" type="curve" smooth="yes"/>
      <point x="156" y="21"/>
      <point x="157" y="67"/>
      <point x="157" y="81" type="curve"/>
      <point x="95" y="81" type="line"/>
      <point x="95" y="105" type="line"/>
      <point x="182" y="105" type="line"/>
    </contour>
  </outline>
</glyph>
<glyph name="H" format="1">
  <advance width="500"/>
  <unicode hex="0048"/>
  <outline>
    <contour>
      <point x="93" y="0" type="line"/>
      <point x="69" y="0" type="line"/>
      <point x="69" y="200" type="line"/>
      <point x="93" y="200" type="line"/>
    </contour>
    <contour>
      <point x="268" y="0" type="line"/>
      <point x="244" y="0" type="line"/>
      <point x="244" y="200" type="line"/>
      <point x="268" y="200" type="line"/>
    </contour>
    <contour>
      <point x="258" y="88" type="line"/>
      <point x="79" y="88" type="line"/>
      <point x="79" y="112" type="line"/>
      <point x="258" y="112" type="line"/>
    </contour>
  </outline>
</glyph>
<glyph name="I" format="1">
  <advance width="500"/>
  <unicode hex="0049"/>
  <outline>
    <contour>
      <point x="193" y="0" type="line"/>
      <point x="169" y="0" type="line"/>
      <point x="169" y="200" type="line"/>
      <point x="193" y="200" type="line"/>
    </contour>
    <contour>
      <point x="280" y="176" type="line"/>
      <point x="81" y="176" type="line"/>
      <point x="81" y="200" type="line"/>
      <point x="280" y="200" type="line"/>
    </contour>
    <contour>
      <point x="280" y="0" type="line"/>
      <point x="81" y="0" type="line"/>
      <point x="81" y="24" type="line"/>
      <point x="280" y="24" type="line"/>
    </contour>
  </outline>
</glyph>
<glyph name="J" format="1">
  <advance width="200"/>
  <unicode hex="004A"/>
  <outline>
    <contour>
      <point x="179.0" y="99.0" type="line"/>
      <point x="155.0" y="99.0" type="line"/>
      <point x="155.0" y="200.0" type="line"/>
      <point x="179.0" y="200.0" type="line"/>
    </contour>
    <contour>
      <point x="179.0" y="176.0" type="line"/>
      <point x="50.0" y="176.0" type="line"/>
      <point x="50.0" y="200.0" type="line"/>
      <point x="179.0" y="200.0" type="line"/>
    </contour>
    <contour>
      <point x="92" y="-3" type="curve" smooth="yes"/>
      <point x="38" y="-3"/>
      <point x="5" y="42"/>
      <point x="5.0" y="99.0" type="curve"/>
      <point x="29.0" y="99.0" type="line"/>
      <point x="29" y="56"/>
      <point x="52" y="22"/>
      <point x="92" y="22" type="curve" smooth="yes"/>
      <point x="132" y="22"/>
      <point x="155" y="56"/>
      <point x="155.0" y="99.0" type="curve"/>
      <point x="179.0" y="99.0" type="line"/>
      <point x="179" y="42"/>
      <point x="146" y="-3"/>
    </contour>
  </outline>
</glyph>
<glyph name="K" format="1">
  <advance width="200"/>
  <unicode hex="004B"/>
  <outline>
    <contour>
      <point x="30" y="0" type="line"/>
      <point x="55" y="0" type="line"/>
      <point x="55" y="82" type="line"/>
      <point x="64" y="91" type="line"/>
      <point x="144" y="0" type="line"/>
      <point x="178" y="0" type="line"/>
      <point x="83" y="110" type="line"/>
      <point x="174" y="200" type="line"/>
      <point x="139" y="200" type="line"/>
      <point x="59" y="120" type="line"/>
      <point x="55" y="121" type="line"/>
      <point x="55" y="200" type="line"/>
      <point x="30" y="200" type="line"/>
    </contour>
  </outline>
</glyph>
<glyph name="L" format="1">
  <advance width="200"/>
  <unicode hex="004C"/>
  <outline>
    <contour>
      <point x="50" y="0" type="line"/>
      <point x="25" y="0" type="line"/>
      <point x="25" y="200" type="line"/>
      <point x="50" y="200" type="line"/>
    </contour>
    <contour>
      <point x="194" y="0" type="line"/>
      <point x="35" y="0" type="line"/>
      <point x="35" y="24" type="line"/>
      <point x="194" y="24" type="line"/>
    </contour>
  </outline>
</glyph>
<glyph name="M" format="1">
  <advance width="200"/>
  <unicode hex="004D"/>
  <outline>
    <contour>
      <point x="16" y="0" type="line"/>
      <point x="16" y="200" type="line"/>
      <point x="43" y="200" type="line"/>
      <point x="90" y="91" type="line" smooth="yes"/>
      <point x="94" y="80"/>
      <point x="99" y="63"/>
      <point x="99" y="63" type="curve"/>
      <point x="102" y="63" type="line"/>
      <point x="102" y="63"/>
      <point x="106" y="80"/>
      <point x="111" y="91" type="curve" smooth="yes"/>
      <point x="158" y="200" type="line"/>
      <point x="184" y="200" type="line"/>
      <point x="184" y="0" type="line"/>
      <point x="159" y="0" type="line"/>
      <point x="159" y="119" type="line" smooth="yes"/>
      <point x="159" y="131"/>
      <point x="159" y="135"/>
      <point x="160" y="149" type="curve"/>
      <point x="157" y="149" type="line"/>
      <point x="157" y="149"/>
      <point x="151" y="132"/>
      <point x="146" y="121" type="curve" smooth="yes"/>
      <point x="110" y="30" type="line"/>
      <point x="90" y="30" type="line"/>
      <point x="54" y="119" type="line" smooth="yes"/>
      <point x="50" y="130"/>
      <point x="44" y="147"/>
      <point x="44" y="147" type="curve"/>
      <point x="41" y="147" type="line"/>
      <point x="42" y="134"/>
      <point x="41" y="129"/>
      <point x="41" y="117" type="curve" smooth="yes"/>
      <point x="41" y="0" type="line"/>
    </contour>
  </outline>
</glyph>
<glyph name="N" format="1">
  <advance width="200"/>
  <unicode hex="004E"/>
  <outline>
    <contour>
      <point x="55" y="0" type="line"/>
      <point x="55" y="119" type="line" smooth="yes"/>
      <point x="55.0" y="131.0"/>
      <point x="55" y="140"/>
      <point x="53" y="148" type="curve"/>
      <point x="57" y="150" type="line"/>
      <point x="60" y="141"/>
      <point x="63.6049918957" y="133.775150641"/>
      <point x="70" y="123" type="curve" smooth="yes"/>
      <point x="143" y="0" type="line"/>
      <point x="168" y="0" type="line"/>
      <point x="168" y="200" type="line"/>
      <point x="143" y="200" type="line"/>
      <point x="143" y="80" type="line" smooth="yes"/>
      <point x="143.0" y="68.0"/>
      <point x="143" y="59"/>
      <point x="145" y="51" type="curve"/>
      <point x="141" y="49" type="line"/>
      <point x="138" y="58"/>
      <point x="134.356749081" y="65.2022344383"/>
      <point x="128" y="76" type="curve" smooth="yes"/>
      <point x="55" y="200" type="line"/>
      <point x="30" y="200" type="line"/>
      <point x="30" y="0" type="line"/>
    </contour>
  </outline>
</glyph>
<glyph name="O" format="1">
  <advance width="200"/>
  <unicode hex="004F"/>
  <outline>
    <contour>
      <point x="100" y="-3" type="curve" smooth="yes"/>
      <point x="50.1538461538" y="-3.0"/>
      <point x="19.0" y="42.0"/>
      <point x="19" y="101" type="curve" smooth="yes"/>
      <point x="19.0" y="159.0"/>
      <point x="50.1538461538" y="203.0"/>
      <point x="100" y="203" type="curve" smooth="yes"/>
      <point x="149.5" y="203.0"/>
      <point x="181.0" y="159.0"/>
      <point x="181" y="101" type="curve" smooth="yes"/>
      <point x="181.0" y="43.0"/>
      <point x="150.4" y="-3.0"/>
    </contour>
    <contour>
      <point x="100" y="178" type="curve" smooth="yes"/>
      <point x="65.2121212121" y="178.0"/>
      <point x="44.0" y="144.0"/>
      <point x="44" y="101" type="curve" smooth="yes"/>
      <point x="44.0" y="57.0"/>
      <point x="65.2121212121" y="22.0"/>
      <point x="100" y="22" type="curve" smooth="yes"/>
      <point x="135.323076923" y="22.0"/>
      <point x="156.0" y="57.0"/>
      <point x="156" y="101" type="curve" smooth="yes"/>
      <point x="156.0" y="144.0"/>
      <point x="135.323076923" y="178.0"/>
    </contour>
  </outline>
</glyph>
<glyph name="P" format="1">
  <advance width="200"/>
  <unicode hex="0050"/>
  <outline>
    <contour>
      <point x="30" y="200" type="line"/>
      <point x="97" y="200" type="line" smooth="yes"/>
      <point x="150" y="200"/>
      <point x="177" y="172"/>
      <point x="177" y="134" type="curve" smooth="yes"/>
      <point x="177" y="94"/>
      <point x="150" y="68"/>
      <point x="94" y="68" type="curve" smooth="yes"/>
      <point x="55" y="68" type="line"/>
      <point x="55" y="0" type="line"/>
      <point x="30" y="0" type="line"/>
    </contour>
    <contour>
      <point x="55" y="176" type="line"/>
      <point x="55" y="92" type="line"/>
      <point x="100" y="92" type="line" smooth="yes"/>
      <point x="136" y="92"/>
      <point x="151" y="109"/>
      <point x="151" y="134" type="curve" smooth="yes"/>
      <point x="151" y="161"/>
      <point x="136" y="176"/>
      <point x="100" y="176" type="curve" smooth="yes"/>
    </contour>
  </outline>
</glyph>
<glyph name="Q" format="1">
  <advance width="200"/>
  <unicode hex="0051"/>
  <outline>
    <contour>
      <point x="99.21" y="-3.4268" type="curve" smooth="yes"/>
      <point x="43.36" y="-3.4268"/>
      <point x="9" y="45"/>
      <point x="9" y="101" type="curve" smooth="yes"/>
      <point x="9" y="157"/>
      <point x="43.36" y="205.1612"/>
      <point x="99.21" y="205.1612" type="curve" smooth="yes"/>
      <point x="155.07" y="205.1612"/>
      <point x="189.428" y="156.7232"/>
      <point x="189.428" y="100.8732" type="curve" smooth="yes"/>
      <point x="189.428" y="45.0132"/>
      <point x="155.07" y="-3.4268"/>
    </contour>
    <contour>
      <point x="99" y="180" type="curve" smooth="yes"/>
      <point x="57" y="180"/>
      <point x="34" y="143"/>
      <point x="34" y="101" type="curve" smooth="yes"/>
      <point x="34" y="58"/>
      <point x="57" y="22"/>
      <point x="99" y="22" type="curve" smooth="yes"/>
      <point x="142" y="22"/>
      <point x="164" y="58"/>
      <point x="164" y="101" type="curve" smooth="yes"/>
      <point x="164" y="143"/>
      <point x="142" y="180"/>
    </contour>
    <contour>
      <point x="188.428" y="-3.4268" type="line"/>
      <point x="99.21" y="-3.4268" type="line"/>
      <point x="99" y="22" type="line"/>
      <point x="188.428" y="20.5772" type="line"/>
    </contour>
  </outline>
</glyph>
<glyph name="R" format="1">
  <advance width="200"/>
  <unicode hex="0052"/>
  <outline>
    <contour>
      <point x="142" y="0" type="line"/>
      <point x="170" y="0" type="line"/>
      <point x="129" y="98" type="line"/>
      <point x="105" y="90" type="line"/>
    </contour>
    <contour>
      <point x="38" y="0" type="line"/>
      <point x="63" y="0" type="line"/>
      <point x="63" y="79" type="line"/>
      <point x="105" y="79" type="line"/>
      <point x="144" y="79"/>
      <point x="172" y="98"/>
      <point x="172" y="140" type="curve" smooth="yes"/>
      <point x="172" y="179"/>
      <point x="148" y="200"/>
      <point x="103" y="200" type="curve" smooth="yes"/>
      <point x="38" y="200" type="line"/>
    </contour>
    <contour>
      <point x="96" y="176" type="line" smooth="yes"/>
      <point x="129" y="176"/>
      <point x="147" y="163"/>
      <point x="147" y="140" type="curve" smooth="yes"/>
      <point x="147" y="107"/>
      <point x="125" y="103"/>
      <point x="98" y="103" type="curve"/>
      <point x="63" y="103" type="line"/>
      <point x="63" y="176" type="line"/>
    </contour>
  </outline>
</glyph>
<glyph name="S" format="1">
  <advance width="200"/>
  <unicode hex="0053"/>
  <outline>
    <contour>
      <point x="111" y="116" type="curve" smooth="yes"/>
      <point x="76" y="129"/>
      <point x="59" y="134"/>
      <point x="59" y="154" type="curve" smooth="yes"/>
      <point x="59" y="169"/>
      <point x="75" y="181"/>
      <point x="103" y="181" type="curve" smooth="yes"/>
      <point x="126" y="181"/>
      <point x="142" y="172"/>
      <point x="155" y="158" type="curve"/>
      <point x="172" y="173" type="line"/>
      <point x="155" y="192"/>
      <point x="132" y="205"/>
      <point x="102" y="205" type="curve" smooth="yes"/>
      <point x="57" y="205"/>
      <point x="32" y="181"/>
      <point x="32" y="153" type="curve" smooth="yes"/>
      <point x="32" y="116"/>
      <point x="66" y="105"/>
      <point x="102" y="93" type="curve" smooth="yes"/>
      <point x="136" y="81"/>
      <point x="153" y="70"/>
      <point x="153" y="52" type="curve" smooth="yes"/>
      <point x="153" y="30"/>
      <point x="134" y="20"/>
      <point x="100" y="20" type="curve" smooth="yes"/>
      <point x="81" y="20"/>
      <point x="59" y="27"/>
      <point x="42" y="45" type="curve"/>
      <point x="26" y="30" type="line"/>
      <point x="42" y="11"/>
      <point x="68" y="-3"/>
      <point x="100" y="-3" type="curve" smooth="yes"/>
      <point x="160" y="-3"/>
      <point x="180" y="24"/>
      <point x="180" y="51" type="curve" smooth="yes"/>
      <point x="180" y="86"/>
      <point x="155" y="100"/>
    </contour>
  </outline>
</glyph>
<glyph name="T" format="1">
  <advance width="500"/>
  <unicode hex="0054"/>
  <outline>
    <contour>
      <point x="204" y="0" type="line"/>
      <point x="180" y="0" type="line"/>
      <point x="180" y="200" type="line"/>
      <point x="204" y="200" type="line"/>
    </contour>
    <contour>
      <point x="292" y="176" type="line"/>
      <point x="93" y="176" type="line"/>
      <point x="93" y="200" type="line"/>
      <point x="292" y="200" type="line"/>
    </contour>
  </outline>
</glyph>
<glyph name="U" format="1">
  <advance width="200"/>
  <unicode hex="0055"/>
  <outline>
    <contour>
      <point x="175" y="200" type="line"/>
      <point x="149" y="200" type="line"/>
      <point x="149" y="89" type="line"/>
      <point x="149" y="47"/>
      <point x="132" y="19"/>
      <point x="100" y="19" type="curve" smooth="yes"/>
      <point x="67" y="19"/>
      <point x="51" y="47"/>
      <point x="51" y="89" type="curve"/>
      <point x="51" y="200" type="line"/>
      <point x="25" y="200" type="line"/>
      <point x="25" y="86" type="line"/>
      <point x="25" y="30"/>
      <point x="51" y="-6"/>
      <point x="100" y="-6" type="curve" smooth="yes"/>
      <point x="148" y="-6"/>
      <point x="175" y="30"/>
      <point x="175" y="86" type="curve"/>
    </contour>
  </outline>
</glyph>
<glyph name="V" format="1">
  <advance width="200"/>
  <unicode hex="0056"/>
  <outline>
    <contour>
      <point x="89.296" y="-0.3228" type="line"/>
      <point x="108.32" y="-0.3228" type="line"/>
      <point x="193.418" y="200.1052" type="line"/>
      <point x="167.07" y="200.1052" type="line"/>
      <point x="89.296" y="15.8312" type="line"/>
    </contour>
    <contour>
      <point x="90.096" y="-0.3228" type="line"/>
      <point x="109.14" y="-0.3228" type="line"/>
      <point x="109.14" y="15.8112" type="line"/>
      <point x="31.356" y="200.1052" type="line"/>
      <point x="5.0" y="200.1052" type="line"/>
    </contour>
  </outline>
</glyph>
<glyph name="W" format="1">
  <advance width="200"/>
  <unicode hex="0057"/>
  <outline>
    <contour>
      <point x="154" y="0" type="line"/>
      <point x="194" y="200" type="line"/>
      <point x="168.936" y="200.1052" type="line"/>
      <point x="128.77" y="-0.3228" type="line"/>
    </contour>
    <contour>
      <point x="69.66" y="-0.3228" type="line"/>
      <point x="29.494" y="200.1052" type="line"/>
      <point x="4" y="200" type="line"/>
      <point x="44" y="0" type="line"/>
    </contour>
    <contour>
      <point x="86" y="158" type="line"/>
      <point x="46" y="6" type="line"/>
      <point x="69.66" y="-0.3228" type="line"/>
      <point x="109" y="158" type="line"/>
    </contour>
    <contour>
      <point x="113" y="158" type="line"/>
      <point x="90" y="158" type="line"/>
      <point x="128.77" y="-0.3228" type="line"/>
      <point x="153" y="6" type="line"/>
    </contour>
  </outline>
</glyph>
<glyph name="X" format="1">
  <advance width="200"/>
  <unicode hex="0058"/>
  <outline>
    <contour>
      <point x="36.386" y="200.1028" type="line"/>
      <point x="5.008" y="200.1028" type="line"/>
      <point x="157.314" y="-0.3232" type="line"/>
      <point x="188.066" y="-0.3232" type="line"/>
      <point x="188.426" y="-0.0211999999999" type="line"/>
    </contour>
    <contour>
      <point x="162.04" y="200.1028" type="line"/>
      <point x="10.0" y="-0.0211999999999" type="line"/>
      <point x="10.36" y="-0.3232" type="line"/>
      <point x="41.112" y="-0.3232" type="line"/>
      <point x="193.418" y="200.1028" type="line"/>
    </contour>
  </outline>
</glyph>
<glyph name="Y" format="1">
  <advance width="200"/>
  <unicode hex="0059"/>
  <outline>
    <contour>
      <point x="87" y="0" type="line"/>
      <point x="113" y="0" type="line"/>
      <point x="113" y="87" type="line"/>
      <point x="184" y="200" type="line"/>
      <point x="153" y="200" type="line"/>
      <point x="101" y="115" type="line"/>
      <point x="47" y="200" type="line"/>
      <point x="16" y="200" type="line"/>
      <point x="87" y="88" type="line"/>
    </contour>
  </outline>
</glyph>
<glyph name="Z" format="1">
  <advance width="200"/>
  <unicode hex="005A"/>
  <outline>
    <contour>
      <point x="188.438" y="-0.3152" type="line"/>
      <point x="188.438" y="23.6888" type="line"/>
      <point x="19.922" y="23.6888" type="line"/>
      <point x="19.922" y="-0.3152" type="line"/>
    </contour>
    <contour>
      <point x="178.506" y="176.1088" type="line"/>
      <point x="178.506" y="200.1128" type="line"/>
      <point x="10.0" y="200.1128" type="line"/>
      <point x="10.0" y="176.1088" type="line"/>
    </contour>
    <contour>
      <point x="173.594" y="200.1128" type="line"/>
      <point x="10.0" y="19.5188" type="line"/>
      <point x="10.0" y="-0.3232" type="line"/>
      <point x="29.844" y="-0.3232" type="line"/>
      <point x="188.438" y="180.2688" type="line"/>
      <point x="188.438" y="200.1128" type="line"/>
    </contour>
  </outline>
</glyph>
<glyph name="bracketleft" format="1">
  <advance width="200"/>
  <unicode hex="005B"/>
  <outline>
    <contour>
      <point x="85" y="1" type="line"/>
      <point x="155" y="1" type="line"/>
      <point x="155" y="25" type="line"/>
      <point x="110" y="25" type="line"/>
      <point x="110" y="176" type="line"/>
      <point x="155" y="176" type="line"/>
      <point x="155" y="200" type="line"/>
      <point x="85" y="200" type="line"/>
    </contour>
  </outline>
</glyph>
<glyph name="bracketright" format="1">
  <advance width="200"/>
  <unicode hex="005D"/>
  <outline>
    <contour>
      <point x="115" y="1" type="line"/>
      <point x="115" y="200" type="line"/>
      <point x="45" y="200" type="line"/>
      <point x="45" y="176" type="line"/>
      <point x="90" y="176" type="line"/>
      <point x="90" y="25" type="line"/>
      <point x="45" y="25" type="line"/>
      <point x="45" y="1" type="line"/>
    </contour>
  </outline>
</glyph>
<glyph name="Agrave" format="1">
  <advance width="200"/>
  <unicode hex="00C0"/>
  <outline>
    <contour>
      <point x="137" y="61" type="line"/>
      <point x="99" y="134" type="line"/>
      <point x="61" y="61" type="line"/>
    </contour>
    <contour>
      <point x="169" y="0" type="line"/>
      <point x="150" y="37" type="line"/>
      <point x="49" y="37" type="line"/>
      <point x="30" y="0" type="line"/>
      <point x="3" y="0" type="line"/>
      <point x="86" y="159" type="line"/>
      <point x="112" y="159" type="line"/>
      <point x="197" y="0" type="line"/>
    </contour>
    <component base="grave"/>
  </outline>
</glyph>
<glyph name="Acircumflex" format="1">
  <advance width="200"/>
  <unicode hex="00C2"/>
  <outline>
    <contour>
      <point x="158" y="37" type="line"/>
      <point x="158" y="61" type="line"/>
      <point x="39" y="61" type="line"/>
      <point x="39" y="37" type="line"/>
    </contour>
    <contour>
      <point x="29" y="0" type="line"/>
      <point x="111" y="159" type="line"/>
      <point x="85" y="159" type="line"/>
      <point x="2" y="0" type="line"/>
    </contour>
    <contour>
      <point x="196" y="0" type="line"/>
      <point x="111" y="159" type="line"/>
      <point x="85" y="159" type="line"/>
      <point x="168" y="0" type="line"/>
    </contour>
    <component base="circumflex" xOffset="-5"/>
  </outline>
</glyph>
<glyph name="Adieresis" format="1">
  <advance width="200"/>
  <unicode hex="00C4"/>
  <outline>
    <contour>
      <point x="158" y="37" type="line"/>
      <point x="158" y="61" type="line"/>
      <point x="39" y="61" type="line"/>
      <point x="39" y="37" type="line"/>
    </contour>
    <contour>
      <point x="29" y="0" type="line"/>
      <point x="111" y="159" type="line"/>
      <point x="85" y="159" type="line"/>
      <point x="2" y="0" type="line"/>
    </contour>
    <contour>
      <point x="196" y="0" type="line"/>
      <point x="111" y="159" type="line"/>
      <point x="85" y="159" type="line"/>
      <point x="168" y="0" type="line"/>
    </contour>
    <component base="dieresis" xOffset="-2"/>
  </outline>
</glyph>
<glyph name="Egrave" format="1">
  <advance width="200"/>
  <unicode hex="00C8"/>
  <outline>
    <contour>
      <point x="20" y="1" type="line"/>
      <point x="180" y="1" type="line"/>
      <point x="180" y="25" type="line"/>
      <point x="45" y="25" type="line"/>
      <point x="45" y="70" type="line"/>
      <point x="140" y="70" type="line"/>
      <point x="140" y="94" type="line"/>
      <point x="45" y="94" type="line"/>
      <point x="45" y="139" type="line"/>
      <point x="180" y="139" type="line"/>
      <point x="180" y="163" type="line"/>
      <point x="20" y="163" type="line"/>
    </contour>
    <component base="grave"/>
  </outline>
</glyph>
<glyph name="Eacute" format="1">
  <advance width="200"/>
  <unicode hex="00C9"/>
  <outline>
    <contour>
      <point x="30" y="1" type="line"/>
      <point x="170" y="1" type="line"/>
      <point x="170" y="25" type="line"/>
      <point x="55" y="25" type="line"/>
      <point x="55" y="70" type="line"/>
      <point x="130" y="70" type="line"/>
      <point x="130" y="94" type="line"/>
      <point x="55" y="94" type="line"/>
      <point x="55" y="139" type="line"/>
      <point x="170" y="139" type="line"/>
      <point x="170" y="163" type="line"/>
      <point x="30" y="163" type="line"/>
    </contour>
    <component base="acute"/>
  </outline>
</glyph>
<glyph name="Icircumflex" format="1">
  <advance width="200"/>
  <unicode hex="00CE"/>
  <outline>
    <contour>
      <point x="112" y="0" type="line"/>
      <point x="87" y="0" type="line"/>
      <point x="87" y="160" type="line"/>
      <point x="112" y="160" type="line"/>
    </contour>
    <contour>
      <point x="179" y="136" type="line"/>
      <point x="20" y="136" type="line"/>
      <point x="20" y="160" type="line"/>
      <point x="179" y="160" type="line"/>
    </contour>
    <contour>
      <point x="179" y="0" type="line"/>
      <point x="20" y="0" type="line"/>
      <point x="20" y="24" type="line"/>
      <point x="179" y="24" type="line"/>
    </contour>
    <component base="circumflex" xOffset="-2"/>
  </outline>
</glyph>
<glyph name="Oacute" format="1">
  <advance width="200"/>
  <unicode hex="00D3"/>
  <outline>
    <contour>
      <point x="100" y="-3" type="curve" smooth="yes"/>
      <point x="48" y="-3"/>
      <point x="9" y="30"/>
      <point x="9" y="81" type="curve" smooth="yes"/>
      <point x="9" y="131"/>
      <point x="48" y="163"/>
      <point x="100" y="163" type="curve" smooth="yes"/>
      <point x="151" y="163"/>
      <point x="190" y="131"/>
      <point x="190" y="81" type="curve" smooth="yes"/>
      <point x="190" y="30"/>
      <point x="152" y="-3"/>
    </contour>
    <contour>
      <point x="100" y="138" type="curve" smooth="yes"/>
      <point x="63" y="138"/>
      <point x="34" y="116"/>
      <point x="34" y="81" type="curve" smooth="yes"/>
      <point x="34" y="45"/>
      <point x="62" y="22"/>
      <point x="100" y="22" type="curve" smooth="yes"/>
      <point x="137" y="22"/>
      <point x="165" y="45"/>
      <point x="165" y="81" type="curve" smooth="yes"/>
      <point x="165" y="116"/>
      <point x="137" y="138"/>
    </contour>
    <component base="acute"/>
  </outline>
</glyph>
<glyph name="Apetit" format="1">
  <advance width="200"/>
  <outline>
    <contour>
      <point x="13" y="0" type="line"/>
      <point x="90" y="160" type="line"/>
      <point x="110" y="160" type="line"/>
      <point x="188" y="0" type="line"/>
      <point x="164" y="0" type="line"/>
      <point x="147" y="36" type="line"/>
      <point x="54" y="36" type="line"/>
      <point x="37" y="0" type="line"/>
    </contour>
    <contour>
      <point x="65" y="60" type="line"/>
      <point x="135" y="60" type="line"/>
      <point x="117" y="96" type="line" smooth="yes"/>
      <point x="111" y="109"/>
      <point x="102" y="127"/>
      <point x="102" y="127" type="curve"/>
      <point x="98" y="127" type="line"/>
      <point x="98" y="127"/>
      <point x="89" y="108"/>
      <point x="83" y="96" type="curve" smooth="yes"/>
    </contour>
  </outline>
</glyph>
